<mxfile host="app.diagrams.net" modified="2024-06-04T09:30:05.044Z" agent="Mozilla/5.0 (X11; Linux x86_64; rv:126.0) Gecko/20100101 Firefox/126.0" version="24.4.13" etag="_NhT0XcVfCZKNzL055BN" type="github">
  <diagram name="Page-1" id="lqy1t48aficGmvuUr672">
    <mxGraphModel>
      <root>
        <mxCell id="0" />
        <mxCell id="1" parent="0" />
      </root>
    </mxGraphModel>
  </diagram>
</mxfile>
